<svg xmlns="http://www.w3.org/2000/svg" viewBox="0 0 210.84 86.349"><path fill="#0b5481" d="M37.87 85.579q-1.19-3.15-2.24-6.16-1.05-3.08-2.17-6.23H11.48l-4.41 12.39H0q2.8-7.7 5.25-14.21 2.45-6.58 4.76-12.46 2.38-5.88 4.69-11.2 2.31-5.39 4.83-10.64h6.23q2.52 5.25 4.83 10.64 2.31 5.32 4.62 11.2 2.38 5.88 4.83 12.46 2.45 6.51 5.25 14.21zm-6.37-17.99q-2.24-6.09-4.48-11.76-2.17-5.74-4.55-10.99-2.45 5.25-4.69 10.99-2.17 5.67-4.34 11.76zm45.15-13.51q-1.47 1.61-3.92 4.55-2.38 2.94-5.18 6.51-2.73 3.57-5.53 7.49-2.73 3.92-4.83 7.49h20.02v5.46H49.42v-4.34q1.68-3.08 4.13-6.79t5.11-7.35q2.73-3.71 5.25-6.93 2.59-3.29 4.48-5.53H50.4v-5.46h26.25zm36.89 30.45q-2.24.56-5.95 1.19-3.64.63-8.47.63-4.2 0-7.07-1.19-2.87-1.26-4.62-3.5t-2.52-5.25q-.77-3.08-.77-6.79v-20.44h6.51v19.04q0 6.65 2.1 9.52 2.1 2.87 7.07 2.87 1.05 0 2.17-.07 1.12-.07 2.1-.14.98-.14 1.75-.21.84-.14 1.19-.28v-30.73h6.51zm24.64-36.12q.84 0 1.89.14 1.12.07 2.17.28 1.05.14 1.89.35.91.14 1.33.28l-1.12 5.67q-.77-.28-2.59-.63-1.75-.42-4.55-.42-1.82 0-3.64.42-1.75.35-2.31.49v30.59h-6.51v-34.86q2.31-.84 5.74-1.54 3.43-.77 7.7-.77zm14-11.34h6.79v48.51h-6.79zm51.24 48.51q-1.19-3.15-2.24-6.16-1.05-3.08-2.17-6.23h-21.98l-4.41 12.39h-7.07q2.8-7.7 5.25-14.21 2.45-6.58 4.76-12.46 2.38-5.88 4.69-11.2 2.31-5.39 4.83-10.64h6.23q2.52 5.25 4.83 10.64 2.31 5.32 4.62 11.2 2.38 5.88 4.83 12.46 2.45 6.51 5.25 14.21zm-6.37-17.99q-2.24-6.09-4.48-11.76-2.17-5.74-4.55-10.99-2.45 5.25-4.69 10.99-2.17 5.67-4.34 11.76z"/><g transform="translate(86.291 82.824)"><circle cx="69.276" cy="-67.017" r="15.807" fill="#0b5481"/><g fill="#3af24b" transform="matrix(.19303 0 0 .19303 42.82 -99.18)"><circle cx="136.79" cy="238.64" r="7.74"/><ellipse cx="128.9" cy="94.61" rx="7.739" ry="7.74"/><path d="M135.37 241.91v-5.06c39.029.466 70.917-31.044 70.917-70.075 0-39.031-31.888-70.541-70.917-70.075v-5.01c41.493 0 75.13 33.637 75.13 75.13 0 41.493-33.637 75.13-75.13 75.13z"/><path d="M133.8 238.23a66.62 66.62 0 0 1-23.44-4.6c-4.36-1.64-11.19-6.79-13.94-9.91-15.28-17.31-15.27-43.33-15.1-50.53 0-.24.36-.24.36 0 1.25 7.88 7.165 42.286 30.72 57 6.78 3.915 10.988 6.092 21.6 6.62v-1.59a44.22 44.22 0 0 1-16.12-3.91 19.43 19.43 0 0 0 4.62-6.67c3.9-9.43 2.61-25.06-12.64-50.18-27.32-45-4.19-72.84-3.28-73.89C80.11 112.047 62.987 138.15 63 167c0 0-3.36 70.46 72.38 74.76 0-1.563-1.58-2.547-1.58-3.53z"/><path d="M137.29 240.89l-3.72-3.42c1.44-1.57 3.92-6.47 5.09-9.66 3.4-9.3 3-32.28-12.23-57.39-26.37-43.6-8.59-68.93.27-77.79.894.894 2.626 2.636 3.57 3.58-8 8-24 31.05.49 71.59 14.41 23.84 17.27 49.11 12.64 61.76-1.16 3.15-3.9 8.93-6.11 11.33z"/><path d="M136.37 241.53l-1.88-4.69c1.91-.77 46.65-19.35 40.51-70-6.21-51.11-46.75-70.42-47.16-70.61l2.16-4.54c.43.2 43.5 20.6 50 74.59 6.63 54.51-43.13 75.05-43.63 75.25z"/><path d="M123.69 159l-3-4c.21-.16 21.21-15.85 44.42-26.43.508-.321.847-.277 1.41-.2 1.13.17 27.65 4.21 41.74 21.21l-3.89 3.23c-11.63-14-33.63-18.56-37.86-19.32-22.46 10.31-42.61 25.36-42.82 25.51zm71.37 45.25a41.93 41.93 0 0 0-17.34-28c-17.41 6.05-35.36 22.63-35.55 22.8l-3.44-3.7c.8-.74 19.71-18.22 38.54-24.28.876-.424 1.15-.248 1.95.19.69.38 17.05 9.55 20.79 32.17z"/><circle cx="166.13" cy="130.7" r="9.84"/><circle cx="178.1" cy="174.22" r="9.84"/><circle cx="204.947" cy="147.697" r="6.187"/><circle cx="197.55" cy="203.845" r="6.187"/><circle cx="140.45" cy="196.93" r="6.24"/><circle cx="122.147" cy="156.989" r="6.187"/></g></g></svg>